<svg width="339" height="375" viewBox="0 0 339 375" fill="none" xmlns="http://www.w3.org/2000/svg">
<mask id="mask0_1404_728" style="mask-type:alpha" maskUnits="userSpaceOnUse" x="0" y="15" width="314" height="360">
<rect y="15" width="314" height="360" rx="20" fill="white"/>
</mask>
<g mask="url(#mask0_1404_728)">
<path d="M603.723 -157.044L603.968 -157.48L603.723 -157.044C669.586 -119.909 704.786 -45.2348 691.463 29.2039L670.746 144.951C657.649 218.127 600.386 275.47 527.186 288.654L201.673 347.287C145.265 357.413 95.9854 308.252 106.083 251.837L197.756 -260.361C207.736 -316.122 269.799 -345.355 319.157 -317.546C319.157 -317.546 319.157 -317.546 319.157 -317.546L603.723 -157.044Z" stroke="#B7D556" stroke-opacity="0.5"/>
<path d="M520.723 -237.044L520.968 -237.48L520.723 -237.044C586.586 -199.909 621.786 -125.235 608.463 -50.7961L587.746 64.9515C574.649 138.127 517.386 195.47 444.186 208.654L118.673 267.287C62.265 277.413 12.9854 228.252 23.0826 171.837L114.756 -340.361C124.736 -396.122 186.799 -425.355 236.157 -397.546C236.157 -397.546 236.157 -397.546 236.157 -397.546L520.723 -237.044Z" stroke="#B7D556" stroke-opacity="0.5"/>
</g>
</svg>
