<?xml version="1.0" encoding="UTF-8"?>
<svg xmlns="http://www.w3.org/2000/svg" width="72" height="71" viewBox="0 0 72 71" fill="none">
  <g clip-path="url(#clip0_59_3506)">
    <path d="M66.3627 55.3833V53.3601C66.3627 52.777 65.8907 52.3026 65.3074 52.3026C64.7241 52.3026 64.2521 52.7756 64.2521 53.3601V55.0388C64.1788 55.036 64.1055 55.036 64.0323 55.036H40.9077V47.2933H64.2521V49.1104C64.2521 49.6935 64.7241 50.1679 65.3074 50.1679C65.8907 50.1679 66.3627 49.6949 66.3627 49.1104V47.0872C66.3627 46.0354 65.5089 45.1798 64.4592 45.1798H55.1851V43.0902C55.1851 38.6386 52.5841 35.7075 47.2341 34.1291C47.2017 34.1192 47.1707 34.1121 47.1369 34.1051L36.6948 32.0706V29.8638C37.0583 29.6111 37.4148 29.3372 37.7614 29.0379C39.6354 27.4213 40.8316 25.1058 41.1275 22.5729C42.5309 22.4134 43.6257 21.2175 43.6257 19.769V17.9039C44.5387 17.4761 45.1714 16.5471 45.1714 15.4727C45.1714 14.1921 44.271 13.1191 43.0719 12.8522V12.1816C43.0719 5.46393 37.6177 0 30.9151 0H29.9062C25.9822 0 22.2793 1.91449 19.9995 5.11943C19.6614 5.59523 19.7727 6.25457 20.2461 6.59342C20.7209 6.93227 21.379 6.82073 21.7171 6.34635C22.5484 5.17732 23.6094 4.21443 24.8141 3.50567V5.50628C24.8141 6.0908 25.2861 6.56377 25.8694 6.56377C26.4528 6.56377 26.9248 6.0908 26.9248 5.50628V2.5696C27.7293 2.31829 28.5677 2.16722 29.4229 2.12486V8.02929C29.4229 8.61239 29.895 9.08678 30.4783 9.08678C31.0616 9.08678 31.5336 8.6138 31.5336 8.02929V2.13192C32.3523 2.18134 33.1441 2.32958 33.8993 2.56536V5.50487C33.8993 6.08939 34.3714 6.56236 34.9547 6.56236C35.538 6.56236 36.01 6.08939 36.01 5.50487V3.50284C38.9732 5.25497 40.9655 8.48815 40.9655 12.1788V12.7859H19.8629V12.1788C19.8629 11.3839 19.9559 10.5918 20.139 9.8266C20.2743 9.25903 19.9249 8.68863 19.3584 8.55309C18.7906 8.41614 18.2228 8.7677 18.0875 9.33527C17.8663 10.2615 17.7536 11.2187 17.7536 12.1788V12.8494C16.5545 13.1148 15.6542 14.1893 15.6542 15.4698C15.6542 16.5443 16.2882 17.4733 17.1999 17.9011V19.7661C17.1999 21.2147 18.2946 22.412 19.698 22.5701C19.9953 25.1044 21.1916 27.4185 23.0641 29.0351C23.4107 29.3344 23.7658 29.6097 24.1307 29.861V32.0692L13.6886 34.1037C13.6562 34.1107 13.6238 34.1178 13.5914 34.1277C8.24142 35.7061 5.6404 38.6372 5.6404 43.0888V55.3819C2.38138 56.3829 0.00439453 59.4269 0.00439453 63.0159C0.00439453 67.4167 3.57762 70.9986 7.97089 70.9986H64.0393C68.4312 70.9986 72.0058 67.4181 72.0058 63.0159C72.0058 59.4255 69.6288 56.3815 66.3684 55.3819L66.3627 55.3833ZM47.3708 36.3881C51.3076 37.7166 53.0744 39.8062 53.0744 43.0902V45.1798H47.3708V36.3895V36.3881ZM17.7606 15.4712C17.7606 15.1564 18.0157 14.9009 18.3285 14.9009H42.4928C42.807 14.9009 43.0621 15.1564 43.0621 15.4712C43.0621 15.7861 42.807 16.0402 42.4928 16.0402H18.3285C18.0157 16.0402 17.7606 15.7847 17.7606 15.4712ZM21.734 21.5098C21.7213 20.9352 21.2535 20.4749 20.6787 20.4749H20.0122C19.6233 20.4749 19.3049 20.1572 19.3049 19.7661V18.1538H41.515V19.7661C41.515 20.1572 41.198 20.4749 40.8077 20.4749H40.1412C39.5678 20.4749 39.0986 20.9352 39.0873 21.5098C39.038 23.8352 38.0517 25.9953 36.3834 27.434C34.6447 28.9334 32.6355 29.7085 30.4107 29.7353C28.1858 29.7085 26.1766 28.9334 24.4379 27.434C22.7696 25.9939 21.7833 23.8352 21.734 21.5098ZM34.5855 31.0159V32.9417C34.5855 35.2473 32.713 37.1236 30.4121 37.1236C28.1112 37.1236 26.2372 35.2473 26.2372 32.9417V31.0159C27.5391 31.5538 28.9298 31.8348 30.3994 31.8503H30.4233C31.8915 31.8334 33.2836 31.5538 34.5855 31.0159ZM20.6773 34.8971L24.2547 34.1997C24.8381 37.0714 27.3771 39.2386 30.4121 39.2386C33.4471 39.2386 35.9861 37.0714 36.5694 34.1997L40.1455 34.8971V40.8651C40.1455 41.4426 39.6762 41.9127 39.0986 41.9127H21.7242C21.1465 41.9127 20.6773 41.4426 20.6773 40.8651V34.8971ZM15.5598 35.8939L18.568 35.308V40.8651C18.568 42.6088 19.984 44.0263 21.7242 44.0263H39.0986C40.8387 44.0263 42.2547 42.6088 42.2547 40.8651V35.308L45.2615 35.8939V45.1798H40.7048C39.6551 45.1798 38.7999 46.0354 38.7999 47.0872V55.036H15.5598V35.8939ZM7.74686 43.0902C7.74686 39.8062 9.51375 37.718 13.4505 36.3881V45.1784H7.74686V43.0888V43.0902ZM7.74686 47.2933H13.4505V55.036H7.96666C7.8934 55.036 7.82013 55.036 7.74686 55.0388V47.2919V47.2933ZM64.0337 68.8879H7.96666C4.73723 68.8879 2.10944 66.2547 2.10944 63.0187C2.10944 59.7827 4.73723 57.1496 7.96666 57.1496H64.0351C67.2645 57.1496 69.8923 59.7827 69.8923 63.0187C69.8923 66.2547 67.2645 68.8879 64.0351 68.8879H64.0337Z" fill="black"></path>
    <path d="M64.0335 58.9865H7.96649C5.74731 58.9865 3.94238 60.7951 3.94238 63.0173C3.94238 65.2396 5.74731 67.0482 7.96649 67.0482H64.0349C66.2541 67.0482 68.0576 65.2396 68.0576 63.0173C68.0576 60.7951 66.2527 58.9865 64.0349 58.9865H64.0335ZM7.96508 64.9361C7.01682 64.9361 6.22778 64.2414 6.07702 63.3336C6.07561 63.3265 6.0742 63.3181 6.07279 63.3096C6.06998 63.2941 6.06716 63.2785 6.06575 63.2616C6.06575 63.2531 6.06293 63.2461 6.06293 63.2376C6.06011 63.2051 6.05589 63.1726 6.05448 63.1402C6.05166 63.0992 6.05025 63.0583 6.05025 63.0173C6.05025 62.9764 6.05166 62.9354 6.05448 62.8945C6.05589 62.862 6.06011 62.8296 6.06293 62.7971C6.06293 62.7886 6.06575 62.7815 6.06575 62.7731C6.06716 62.7575 6.06998 62.7406 6.07279 62.7251C6.07279 62.7166 6.07561 62.7095 6.07702 62.7011C6.22778 61.7932 7.01682 61.0986 7.96508 61.0986C9.02043 61.0986 9.87851 61.9584 9.87851 63.0159C9.87851 64.0734 9.02043 64.9332 7.96508 64.9346V64.9361ZM22.0889 64.9361H11.5031C11.8117 64.3657 11.9878 63.712 11.9878 63.0173C11.9878 62.3227 11.8117 61.6704 11.5031 61.1H22.0889C21.7803 61.6704 21.6042 62.3241 21.6042 63.0173C21.6042 63.7106 21.7803 64.3643 22.0889 64.9361ZM25.6269 64.9361C24.5716 64.9361 23.7135 64.0762 23.7135 63.0173C23.7135 61.9584 24.5716 61.1 25.6269 61.1C26.6823 61.1 27.5403 61.9598 27.5403 63.0173C27.5403 64.0748 26.6823 64.9361 25.6269 64.9361ZM42.8322 64.9361H29.1649C29.4735 64.3657 29.6496 63.712 29.6496 63.0173C29.6496 62.3227 29.4735 61.6704 29.1649 61.1H42.8322C42.5237 61.6704 42.3475 62.3241 42.3475 63.0173C42.3475 63.7106 42.5237 64.3643 42.8322 64.9361ZM46.3702 64.9361C45.3149 64.9361 44.4568 64.0762 44.4568 63.0173C44.4568 61.9584 45.3149 61.1 46.3702 61.1C47.4256 61.1 48.2837 61.9598 48.2837 63.0173C48.2837 64.0748 47.4256 64.9361 46.3702 64.9361ZM49.9082 64.9361C50.2168 64.3657 50.3929 63.712 50.3929 63.0173C50.3929 62.3227 50.2168 61.6704 49.9082 61.1H60.4941C60.1855 61.6704 60.0094 62.3241 60.0094 63.0173C60.0094 63.7106 60.1855 64.3643 60.4941 64.9361H49.9082ZM64.0321 64.9361C62.9767 64.9361 62.1187 64.0748 62.1187 63.0173C62.1187 61.9598 62.9767 61.1 64.0321 61.1C65.0874 61.1 65.9469 61.9598 65.9469 63.0173C65.9469 64.0748 65.0874 64.9361 64.0321 64.9361Z" fill="black"></path>
  </g>
  <defs>
    <clipPath id="clip0_59_3506">
      <rect width="72" height="71" fill="white"></rect>
    </clipPath>
  </defs>
</svg>
